<?xml version="1.0" encoding="UTF-8"?>
<svg xmlns="http://www.w3.org/2000/svg" xmlns:xlink="http://www.w3.org/1999/xlink" width="35pt" height="35pt" viewBox="0 0 35 35" version="1.1">
<g id="surface1">
<path style=" stroke:none;fill-rule:nonzero;fill:rgb(96.862745%,63.137255%,8.627451%);fill-opacity:1;" d="M 14.257812 1.640625 L 7.230469 21.351562 C 7.191406 21.347656 7.15625 21.335938 7.117188 21.335938 C 5.613281 21.238281 4.21875 22.167969 3.652344 23.65625 L 1.902344 28.25 C 1.472656 29.355469 1.574219 30.601562 2.179688 31.625 C 2.785156 32.648438 3.78125 33.277344 4.914062 33.351562 C 6.417969 33.453125 7.808594 32.519531 8.378906 31.03125 L 10.128906 26.4375 C 10.558594 25.332031 10.457031 24.085938 9.851562 23.0625 C 9.722656 22.847656 9.574219 22.644531 9.40625 22.460938 C 9.925781 21.585938 10.683594 20.875 11.59375 20.414062 L 14.3125 11.8125 C 15.363281 8.5 15.34375 4.941406 14.257812 1.640625 Z M 8.207031 25.613281 L 6.457031 30.207031 C 6.226562 30.808594 5.660156 31.191406 5.046875 31.148438 C 4.582031 31.117188 4.164062 30.851562 3.933594 30.445312 C 3.691406 30.03125 3.648438 29.523438 3.824219 29.074219 L 5.574219 24.480469 C 5.804688 23.878906 6.371094 23.496094 6.984375 23.539062 C 7.449219 23.570312 7.867188 23.835938 8.097656 24.242188 C 8.339844 24.65625 8.382812 25.164062 8.207031 25.613281 Z M 8.207031 25.613281 "/>
<path style=" stroke:none;fill-rule:nonzero;fill:rgb(100%,70.980392%,19.215686%);fill-opacity:1;" d="M 19.117188 29.160156 C 18.894531 27.179688 17.140625 25.726562 15.128906 25.789062 L 9.679688 10.496094 L 6.523438 1.640625 C 5.4375 4.941406 5.417969 8.5 6.46875 11.8125 L 7.578125 15.324219 L 9.1875 20.414062 C 9.757812 20.699219 10.269531 21.085938 10.699219 21.550781 C 11.128906 22.011719 11.472656 22.542969 11.710938 23.125 L 13.070312 26.433594 C 11.929688 27.171875 11.277344 28.472656 11.367188 29.832031 C 11.519531 31.914062 13.476562 33.539062 15.609375 33.34375 C 17.632812 33.160156 19.140625 31.503906 19.140625 29.574219 C 19.140625 29.4375 19.132812 29.296875 19.117188 29.160156 Z M 15.429688 31.183594 C 14.515625 31.28125 13.691406 30.640625 13.59375 29.746094 C 13.492188 28.855469 14.152344 28.054688 15.066406 27.957031 C 15.984375 27.859375 16.808594 28.503906 16.90625 29.394531 C 17.007812 30.285156 16.347656 31.085938 15.429688 31.183594 Z M 15.429688 31.183594 "/>
<path style=" stroke:none;fill-rule:nonzero;fill:rgb(100%,66.27451%,7.058824%);fill-opacity:1;" d="M 19.140625 29.574219 C 19.140625 31.503906 17.632812 33.160156 15.609375 33.34375 C 13.476562 33.539062 11.519531 31.914062 11.367188 29.832031 C 11.277344 28.472656 11.929688 27.171875 13.070312 26.433594 L 11.710938 23.125 C 11.472656 22.542969 11.128906 22.011719 10.699219 21.550781 C 10.269531 21.085938 9.757812 20.699219 9.1875 20.414062 L 7.578125 15.324219 C 8.296875 13.835938 8.996094 12.230469 9.679688 10.496094 L 15.128906 25.789062 C 17.140625 25.726562 18.894531 27.179688 19.117188 29.160156 C 19.132812 29.296875 19.140625 29.4375 19.140625 29.574219 Z M 19.140625 29.574219 "/>
<path style=" stroke:none;fill-rule:nonzero;fill:rgb(100%,79.607843%,45.098039%);fill-opacity:1;" d="M 9.84375 17.5 L 10.9375 17.5 L 10.9375 18.59375 L 9.84375 18.59375 Z M 9.84375 17.5 "/>
<path style=" stroke:none;fill-rule:nonzero;fill:rgb(99.607843%,78.823529%,63.921569%);fill-opacity:1;" d="M 30.683594 18.636719 L 24.609375 17.5 L 24.609375 12.578125 L 18.046875 12.578125 L 18.046875 17.5 L 11.972656 18.640625 C 10.421875 18.929688 9.296875 20.285156 9.296875 21.863281 L 9.296875 30.625 L 33.359375 30.625 L 33.359375 21.863281 C 33.359375 20.285156 32.234375 18.929688 30.683594 18.636719 Z M 30.683594 18.636719 "/>
<path style=" stroke:none;fill-rule:nonzero;fill:rgb(99.607843%,71.764706%,51.764706%);fill-opacity:1;" d="M 24.609375 16.40625 L 24.609375 12.578125 L 18.046875 12.578125 L 18.046875 16.40625 C 20.050781 17.667969 22.605469 17.667969 24.609375 16.40625 Z M 24.609375 16.40625 "/>
<path style=" stroke:none;fill-rule:nonzero;fill:rgb(87.843137%,87.843137%,87.058824%);fill-opacity:1;" d="M 33.359375 21.863281 L 33.359375 31.171875 C 33.359375 32.378906 32.378906 33.359375 31.171875 33.359375 L 11.484375 33.359375 C 11.355469 33.359375 11.226562 33.347656 11.097656 33.324219 C 10.054688 33.136719 9.296875 32.230469 9.296875 31.171875 L 9.296875 21.863281 C 9.296875 20.285156 10.421875 18.929688 11.972656 18.640625 L 16.953125 17.703125 L 18.046875 17.5 L 21.328125 18.625 L 24.609375 17.5 L 27.890625 18.117188 L 30.683594 18.640625 C 30.757812 18.652344 30.832031 18.667969 30.90625 18.6875 C 32.351562 19.066406 33.359375 20.371094 33.359375 21.863281 Z M 33.359375 21.863281 "/>
<path style=" stroke:none;fill-rule:nonzero;fill:rgb(83.921569%,83.921569%,83.137255%);fill-opacity:1;" d="M 19.140625 27.890625 L 19.140625 17.875 L 18.046875 17.5 L 16.953125 17.703125 L 16.953125 27.890625 Z M 19.140625 27.890625 "/>
<path style=" stroke:none;fill-rule:nonzero;fill:rgb(83.921569%,83.921569%,83.137255%);fill-opacity:1;" d="M 33.359375 21.863281 L 33.359375 31.171875 C 33.359375 32.378906 32.378906 33.359375 31.171875 33.359375 L 11.484375 33.359375 C 11.355469 33.359375 11.226562 33.347656 11.097656 33.324219 C 17.695312 32.074219 27.859375 28.542969 30.90625 18.6875 C 32.351562 19.066406 33.359375 20.371094 33.359375 21.863281 Z M 33.359375 21.863281 "/>
<path style=" stroke:none;fill-rule:nonzero;fill:rgb(23.921569%,30.196078%,38.823529%);fill-opacity:1;" d="M 20.234375 18.625 L 22.421875 18.625 L 22.421875 33.359375 L 20.234375 33.359375 Z M 20.234375 18.625 "/>
<path style=" stroke:none;fill-rule:nonzero;fill:rgb(21.568627%,27.058824%,34.901961%);fill-opacity:1;" d="M 20.234375 19.140625 L 20.234375 20.5625 L 21.328125 19.6875 L 22.421875 20.5625 L 22.421875 19.140625 L 21.328125 18.625 Z M 20.234375 19.140625 "/>
<path style=" stroke:none;fill-rule:nonzero;fill:rgb(99.607843%,71.764706%,51.764706%);fill-opacity:1;" d="M 30.078125 25.15625 L 26.796875 26.796875 L 9.296875 27.890625 L 9.296875 31.171875 C 9.296875 32.378906 10.277344 33.359375 11.484375 33.359375 L 14.21875 33.359375 L 27.332031 30.546875 L 30.625 30.078125 L 33.359375 30.078125 L 33.359375 25.15625 Z M 30.078125 25.15625 "/>
<path style=" stroke:none;fill-rule:nonzero;fill:rgb(99.607843%,78.823529%,63.921569%);fill-opacity:1;" d="M 15.859375 26.796875 L 12.578125 25.15625 L 9.296875 25.15625 L 9.296875 30.078125 L 12.03125 30.078125 L 15.324219 30.546875 L 15.859375 30.625 L 28.4375 33.359375 L 31.171875 33.359375 C 32.378906 33.359375 33.359375 32.378906 33.359375 31.171875 L 33.359375 27.890625 Z M 15.859375 26.796875 "/>
<path style=" stroke:none;fill-rule:nonzero;fill:rgb(100%,70.980392%,19.215686%);fill-opacity:1;" d="M 26.46875 33.359375 L 24.9375 33.359375 C 24.757812 33.359375 24.609375 33.210938 24.609375 33.03125 L 24.609375 15.859375 C 25.816406 15.859375 26.796875 16.839844 26.796875 18.046875 L 26.796875 33.03125 C 26.796875 33.210938 26.648438 33.359375 26.46875 33.359375 Z M 26.46875 33.359375 "/>
<path style=" stroke:none;fill-rule:nonzero;fill:rgb(100%,66.27451%,7.058824%);fill-opacity:1;" d="M 24.609375 23.515625 L 24.609375 33.03125 C 24.609375 33.210938 24.757812 33.359375 24.9375 33.359375 L 26.46875 33.359375 C 26.648438 33.359375 26.796875 33.210938 26.796875 33.03125 L 26.796875 21.328125 Z M 24.609375 23.515625 "/>
<path style=" stroke:none;fill-rule:nonzero;fill:rgb(87.843137%,87.843137%,87.058824%);fill-opacity:1;" d="M 24.609375 32.265625 L 26.796875 32.265625 L 26.796875 33.03125 C 26.796875 33.210938 26.648438 33.359375 26.46875 33.359375 L 24.9375 33.359375 C 24.757812 33.359375 24.609375 33.210938 24.609375 33.03125 Z M 24.609375 32.265625 "/>
<path style=" stroke:none;fill-rule:nonzero;fill:rgb(100%,70.980392%,19.215686%);fill-opacity:1;" d="M 18.046875 15.859375 L 18.046875 28.65625 C 18.046875 28.835938 17.898438 28.984375 17.71875 28.984375 L 16.1875 28.984375 C 16.007812 28.984375 15.859375 28.835938 15.859375 28.65625 L 15.859375 18.046875 C 15.859375 16.839844 16.839844 15.859375 18.046875 15.859375 Z M 18.046875 15.859375 "/>
<path style=" stroke:none;fill-rule:nonzero;fill:rgb(100%,66.27451%,7.058824%);fill-opacity:1;" d="M 15.859375 26.796875 L 15.859375 28.65625 C 15.859375 28.835938 16.007812 28.984375 16.1875 28.984375 L 17.71875 28.984375 C 17.898438 28.984375 18.046875 28.835938 18.046875 28.65625 L 18.046875 24.609375 Z M 15.859375 26.796875 "/>
<path style=" stroke:none;fill-rule:nonzero;fill:rgb(87.843137%,87.843137%,87.058824%);fill-opacity:1;" d="M 15.859375 27.890625 L 18.046875 27.890625 L 18.046875 28.65625 C 18.046875 28.835938 17.898438 28.984375 17.71875 28.984375 L 16.1875 28.984375 C 16.007812 28.984375 15.859375 28.835938 15.859375 28.65625 Z M 15.859375 27.890625 "/>
<path style=" stroke:none;fill-rule:nonzero;fill:rgb(83.921569%,83.921569%,83.137255%);fill-opacity:1;" d="M 16.40625 28.984375 L 17.71875 28.984375 C 17.898438 28.984375 18.046875 28.835938 18.046875 28.65625 L 18.046875 27.890625 L 17.5 27.890625 Z M 16.40625 28.984375 "/>
<path style=" stroke:none;fill-rule:nonzero;fill:rgb(83.921569%,83.921569%,83.137255%);fill-opacity:1;" d="M 25.15625 33.359375 L 26.46875 33.359375 C 26.648438 33.359375 26.796875 33.210938 26.796875 33.03125 L 26.796875 32.265625 L 26.25 32.265625 Z M 25.15625 33.359375 "/>
<path style=" stroke:none;fill-rule:nonzero;fill:rgb(99.607843%,75.294118%,57.647059%);fill-opacity:1;" d="M 16.953125 28.984375 L 16.953125 29.707031 C 16.953125 29.910156 17.121094 30.078125 17.324219 30.078125 L 18.769531 30.078125 C 18.972656 30.078125 19.140625 29.910156 19.140625 29.707031 L 19.140625 27 L 18.046875 26.933594 L 18.046875 28.65625 C 18.046875 28.835938 17.898438 28.984375 17.71875 28.984375 Z M 16.953125 28.984375 "/>
<path style=" stroke:none;fill-rule:nonzero;fill:rgb(99.607843%,75.294118%,57.647059%);fill-opacity:1;" d="M 26.796875 27.480469 L 26.796875 33.003906 L 27.890625 33.242188 L 27.890625 27.546875 Z M 26.796875 27.480469 "/>
<path style=" stroke:none;fill-rule:nonzero;fill:rgb(83.921569%,83.921569%,83.137255%);fill-opacity:1;" d="M 27.890625 18.117188 L 27.890625 25.703125 L 26.796875 25.703125 L 26.796875 17.910156 Z M 27.890625 18.117188 "/>
<path style=" stroke:none;fill-rule:nonzero;fill:rgb(50.980392%,27.45098%,16.470588%);fill-opacity:1;" d="M 21.226562 1.640625 L 23.277344 4.375 L 24.632812 4.375 L 22.582031 1.640625 Z M 21.226562 1.640625 "/>
<path style=" stroke:none;fill-rule:nonzero;fill:rgb(50.980392%,27.45098%,16.470588%);fill-opacity:1;" d="M 17.898438 1.640625 L 20.023438 4.375 L 21.394531 4.375 L 19.273438 1.640625 Z M 17.898438 1.640625 "/>
<path style=" stroke:none;fill-rule:nonzero;fill:rgb(99.607843%,78.823529%,63.921569%);fill-opacity:1;" d="M 26.25 6.5625 L 26.25 10.390625 C 26.25 13.109375 24.046875 15.3125 21.328125 15.3125 C 18.609375 15.3125 16.40625 13.109375 16.40625 10.390625 L 16.40625 6.5625 C 16.40625 3.84375 18.609375 1.640625 21.328125 1.640625 C 21.390625 1.640625 21.449219 1.640625 21.511719 1.644531 C 24.15625 1.742188 26.25 3.914062 26.25 6.5625 Z M 26.25 6.5625 "/>
<path style=" stroke:none;fill-rule:nonzero;fill:rgb(99.607843%,75.294118%,57.647059%);fill-opacity:1;" d="M 26.25 6.5625 L 26.25 10.390625 C 26.25 12.746094 24.578125 14.773438 22.265625 15.222656 C 23.417969 14.09375 24.066406 12.550781 24.0625 10.9375 L 24.0625 6.5625 C 24.0625 4.605469 23.109375 2.773438 21.511719 1.644531 C 24.15625 1.742188 26.25 3.914062 26.25 6.5625 Z M 26.25 6.5625 "/>
<path style=" stroke:none;fill-rule:nonzero;fill:rgb(50.980392%,27.45098%,16.470588%);fill-opacity:1;" d="M 26.25 7.109375 L 26.25 11.679688 C 26.25 12.273438 26.128906 12.859375 25.898438 13.402344 L 25.035156 15.410156 C 24.777344 16.015625 24.183594 16.40625 23.527344 16.40625 L 19.128906 16.40625 C 18.472656 16.40625 17.878906 16.015625 17.621094 15.410156 L 16.757812 13.402344 C 16.527344 12.859375 16.40625 12.273438 16.40625 11.679688 L 16.40625 7.109375 L 18.4375 10.660156 C 18.535156 10.832031 18.714844 10.9375 18.910156 10.9375 L 23.746094 10.9375 C 23.859375 10.9375 23.96875 10.902344 24.0625 10.835938 C 24.128906 10.789062 24.179688 10.730469 24.21875 10.660156 Z M 26.25 7.109375 "/>
<path style=" stroke:none;fill-rule:nonzero;fill:rgb(45.490196%,23.137255%,12.54902%);fill-opacity:1;" d="M 26.25 7.109375 L 26.25 11.679688 C 26.25 12.273438 26.128906 12.859375 25.898438 13.402344 L 25.035156 15.410156 C 24.777344 16.015625 24.183594 16.40625 23.527344 16.40625 L 20.554688 16.40625 C 22.691406 15.425781 24.0625 13.289062 24.0625 10.9375 L 24.0625 10.835938 C 24.128906 10.789062 24.179688 10.730469 24.21875 10.660156 Z M 26.25 7.109375 "/>
<path style=" stroke:none;fill-rule:nonzero;fill:rgb(47.843137%,26.27451%,16.470588%);fill-opacity:1;" d="M 19.6875 7.929688 C 19.6875 8.382812 19.320312 8.75 18.867188 8.75 C 18.414062 8.75 18.046875 8.382812 18.046875 7.929688 C 18.046875 7.476562 18.414062 7.109375 18.867188 7.109375 C 19.320312 7.109375 19.6875 7.476562 19.6875 7.929688 Z M 19.6875 7.929688 "/>
<path style=" stroke:none;fill-rule:nonzero;fill:rgb(47.843137%,26.27451%,16.470588%);fill-opacity:1;" d="M 24.609375 7.929688 C 24.609375 8.382812 24.242188 8.75 23.789062 8.75 C 23.335938 8.75 22.96875 8.382812 22.96875 7.929688 C 22.96875 7.476562 23.335938 7.109375 23.789062 7.109375 C 24.242188 7.109375 24.609375 7.476562 24.609375 7.929688 Z M 24.609375 7.929688 "/>
<path style=" stroke:none;fill-rule:nonzero;fill:rgb(96.862745%,64.313725%,40.784314%);fill-opacity:1;" d="M 19.730469 9.632812 L 20.820312 6.898438 L 21.835938 7.304688 L 20.746094 10.039062 Z M 19.730469 9.632812 "/>
<path style=" stroke:none;fill-rule:nonzero;fill:rgb(50.980392%,27.45098%,16.470588%);fill-opacity:1;" d="M 16.40625 8.203125 L 16.40625 6.015625 C 16.40625 4.203125 17.628906 2.734375 19.140625 2.734375 L 19.042969 3.082031 C 18.507812 5.011719 17.605469 6.765625 16.40625 8.203125 Z M 16.40625 8.203125 "/>
<path style=" stroke:none;fill-rule:nonzero;fill:rgb(45.490196%,23.137255%,12.54902%);fill-opacity:1;" d="M 26.25 8.203125 L 26.25 4.441406 C 26.25 3.898438 26 3.386719 25.574219 3.054688 C 25.144531 2.722656 24.589844 2.601562 24.0625 2.734375 L 24.0625 4.375 C 24.0625 4.375 25.050781 6.765625 26.25 8.203125 Z M 26.25 8.203125 "/>
<path style=" stroke:none;fill-rule:nonzero;fill:rgb(50.980392%,27.45098%,16.470588%);fill-opacity:1;" d="M 26.25 3.992188 L 26.25 4.375 L 19.140625 4.375 C 17.628906 4.375 16.40625 3.152344 16.40625 1.640625 L 23.898438 1.640625 C 25.195312 1.640625 26.25 2.695312 26.25 3.992188 Z M 26.25 3.992188 "/>
<path style=" stroke:none;fill-rule:nonzero;fill:rgb(45.490196%,23.137255%,12.54902%);fill-opacity:1;" d="M 26.25 3.992188 L 26.25 4.375 L 23.652344 4.375 C 23.21875 3.273438 22.472656 2.320312 21.503906 1.640625 L 23.898438 1.640625 C 25.195312 1.640625 26.25 2.695312 26.25 3.992188 Z M 26.25 3.992188 "/>
<path style=" stroke:none;fill-rule:nonzero;fill:rgb(99.607843%,78.823529%,63.921569%);fill-opacity:1;" d="M 20.71875 13.125 L 19.6875 13.125 L 19.6875 12.03125 L 20.71875 12.03125 C 21.476562 12.03125 22.210938 11.859375 22.730469 11.558594 L 23.289062 12.503906 C 22.59375 12.90625 21.679688 13.125 20.71875 13.125 Z M 20.71875 13.125 "/>
<path style=" stroke:none;fill-rule:nonzero;fill:rgb(99.607843%,71.764706%,51.764706%);fill-opacity:1;" d="M 26.785156 7.109375 L 26.25 7.109375 L 26.25 10.390625 L 26.785156 10.390625 C 27.691406 10.398438 28.433594 9.667969 28.4375 8.761719 L 28.4375 8.738281 C 28.433594 7.832031 27.691406 7.101562 26.785156 7.109375 Z M 26.785156 7.109375 "/>
<path style=" stroke:none;fill-rule:nonzero;fill:rgb(99.607843%,71.764706%,51.764706%);fill-opacity:1;" d="M 15.867188 7.109375 L 15.839844 7.109375 C 14.933594 7.109375 14.199219 7.84375 14.199219 8.75 C 14.199219 9.65625 14.933594 10.390625 15.839844 10.390625 L 16.40625 10.390625 L 16.40625 7.109375 Z M 15.867188 7.109375 "/>
<path style=" stroke:none;fill-rule:nonzero;fill:rgb(92.156863%,92.156863%,91.372549%);fill-opacity:1;" d="M 24.609375 17.5 L 21.328125 18.625 L 23.808594 20.667969 Z M 24.609375 17.5 "/>
<path style=" stroke:none;fill-rule:nonzero;fill:rgb(92.156863%,92.156863%,91.372549%);fill-opacity:1;" d="M 21.328125 18.625 L 18.046875 17.5 L 18.847656 20.667969 Z M 21.328125 18.625 "/>
</g>
</svg>
